<?xml version="1.0" encoding="utf-8"?>
<!-- Generator: Adobe Illustrator 19.1.0, SVG Export Plug-In . SVG Version: 6.00 Build 0)  -->
<svg version="1.1" id="Layer_1" xmlns="http://www.w3.org/2000/svg" xmlns:xlink="http://www.w3.org/1999/xlink" x="0px" y="0px"
	 viewBox="0 0 410 120" style="enable-background:new 0 0 410 120;" xml:space="preserve">
<style type="text/css">
	.st0{fill:#FFFFFF;}
	.st1{fill:#EE7624;}
	.st2{fill:#232222;}
	.st3{fill:#00A94F;}
	.st4{fill:#FDDD00;}
</style>
<g id="XMLID_65_">
	<path id="XMLID_97_" class="st0" d="M162,80.9c0-4.3-3.4-7.9-7.7-7.9c-4.3,0-7.7,3.6-7.7,7.9c0,4.3,3.4,7.8,7.7,7.8
		C158.6,88.7,162,85.2,162,80.9 M175.4,81c0,11.2-9.5,20.2-21.2,20.2c-11.8,0-21.2-9-21.2-20.2c0-11.3,9.5-20.4,21.2-20.4
		C166,60.5,175.4,69.7,175.4,81"/>
	<path id="XMLID_94_" class="st0" d="M217.7,72.8c0-7.6-5.3-14.2-13-14.2h-10.8v28.7h10.8C212.4,87.2,217.7,80.3,217.7,72.8
		 M232.3,72.8c0,16.2-11.3,27.3-27.3,27.3h-23.1c-1.1,0-1.9-0.9-1.9-1.9V47.7c0-1,0.9-1.9,1.9-1.9H205
		C221,45.8,232.3,56.6,232.3,72.8"/>
	<path id="XMLID_91_" class="st0" d="M254.8,88.8c4.3,0,7.7-3.6,7.7-7.9c0-4.3-3.4-7.9-7.7-7.9c-4.3,0-7.7,3.6-7.7,7.9
		C247.1,85.2,250.5,88.8,254.8,88.8 M252.8,60.5c4.6,0,8.2,1.7,9.8,4.1v-1.2c0-1,0.9-1.8,1.8-1.8h9.7c1,0,1.8,0.8,1.8,1.8v34.8
		c0,1-0.8,1.8-1.8,1.8h-9.7c-1,0-1.8-0.8-1.8-1.8v-1.2c-1.6,2.4-5.3,4.1-9.9,4.1c-9.8,0-19.1-7.8-19.1-20.4S243,60.5,252.8,60.5"/>
	<path id="XMLID_88_" class="st0" d="M298.9,88.8c4.3,0,7.7-3.6,7.7-7.9c0-4.3-3.4-7.9-7.7-7.9c-4.3,0-7.7,3.6-7.7,7.9
		C291.1,85.2,294.5,88.8,298.9,88.8 M296.6,60.5c4.7,0,8.4,1.8,10,3.9V47.6c0-1,0.9-1.8,1.8-1.8h9.8c1,0,1.8,0.8,1.8,1.8v50.7
		c0,1-0.8,1.8-1.8,1.8h-9.7c-1,0-1.8-0.8-1.8-1.8v-1.2c-1.9,2.4-5.3,4.1-9.9,4.1c-9.8,0-19.1-7.8-19.1-20.4S287,60.5,296.6,60.5"/>
	<path id="XMLID_85_" class="st0" d="M343,88.8c4.3,0,7.7-3.6,7.7-7.9c0-4.3-3.4-7.9-7.7-7.9c-4.3,0-7.7,3.6-7.7,7.9
		C335.2,85.2,338.6,88.8,343,88.8 M340.6,60.5c4.7,0,8.4,1.8,10,3.9V47.6c0-1,0.9-1.8,1.8-1.8h9.8c1,0,1.8,0.8,1.8,1.8v50.7
		c0,1-0.8,1.8-1.8,1.8h-9.7c-1,0-1.8-0.8-1.8-1.8v-1.2c-1.9,2.4-5.3,4.1-9.9,4.1c-9.8,0-19.1-7.8-19.1-20.4S331,60.5,340.6,60.5"/>
	<path id="XMLID_53_" class="st0" d="M396.4,105.6c-2.4,8.1-8.1,12.7-16.9,12.7c-4.8,0-9.5-1.6-12.5-4.3c-0.5-0.5-0.8-1.1-0.8-1.6
		c0-0.5,0.2-1.1,0.6-1.6l3.6-5.6c0.5-0.8,1.4-0.9,1.5-0.9c0.9,0,1.2,0.2,2,0.8c1.2,0.8,2.7,1.7,4.5,1.7c1.5,0,3.5-0.6,4.2-2.9
		l1.2-3.9h-5.9c-1.2,0-2-0.9-2.3-1.9L366,64.7c-0.2-0.9-0.3-1.3-0.3-1.6c0-0.8,0.5-1.4,1.6-1.4h11.6c1,0,1.6,0.9,1.9,1.9l6.4,24h0.5
		l5.2-24c0.2-0.9,0.9-1.9,1.9-1.9h11.8c1.1,0,1.6,0.6,1.6,1.4c0,0.3-0.1,0.8-0.3,1.6L396.4,105.6z"/>
	<path id="XMLID_52_" class="st0" d="M119.2,92.5c-4.6,6.5-12.4,8.7-19.2,8.7c-15.7,0-27.3-11.9-27.3-28.3c0-15.7,12.5-28.3,29-28.3
		c12.2,0,21.9,5.2,26.3,15.1c0.5,1.2,0.9,3-2.3,3.6l-8.6,1.5c-2,0.4-3.1-0.9-3.5-1.5c-2.6-3.5-6.7-5.9-11.6-5.9
		c-8.6,0-14.7,6.6-14.7,15.4c0,9.8,7,15.4,14.5,15.4c5,0,9.2-1.9,11.9-5.5H106c-1.1,0-1.9-0.9-1.9-1.9v-7.3c0-1.1,0.9-1.9,1.9-1.9
		h23.2c1.1,0,1.9,0.9,1.9,1.9v24.4c0,1.1-0.9,1.9-1.9,1.9h-8.1c-1.1,0-1.9-0.9-1.9-1.9V92.5z"/>
	<path id="XMLID_51_" class="st1" d="M30.8,11.6c0-0.2,0-0.3,0-0.5c0-2.4,2.2-5,2.3-7.7l0,0V3.4c0-0.5-0.4-0.8-0.7-0.9
		c-0.3-0.2-0.7-0.2-1.2-0.2c-1,0-2.3,0.4-3,1.4c-1.1,2.3-2.9,4.8-2.9,7.3c0,0.8,0.2,1.6,0.7,2.4c1,2.2,2.3,4.1,3.3,6.4
		c0.2,0.4,0.3,0.8,0.3,1.2c0,0.7-0.3,1.3-0.9,2c-0.2,0.2-1.3,0.2-1.9,1.1l0,0.1l0,0.1l0,0.3c0,1,0.8,1.6,1.6,1.9
		c0.5,0.2,0.9,0.3,1.4,0.3c1.7,0,3.2-1.1,3.9-2.3c0.6-1,0.8-1.9,0.8-2.8C34.4,18,31.2,14.8,30.8,11.6"/>
	<path id="XMLID_50_" class="st1" d="M43.9,16c-1.8-2.7-2.1-3.1-3.1-5.1c-0.2-0.5-0.7-1.2-0.7-2c0-0.6,0.2-1.4,1.2-2.2
		C41.8,6.3,42,5.6,42,4.8c0-0.9-0.3-1.8-1-2.4c-0.7-0.5-1.3-0.7-1.9-0.7c-1.2,0-2,1-2.6,2.1c-0.6,1.2-1,2.6-1.5,4
		c-0.2,0.6-0.3,1.1-0.3,1.7c0.1,4.1,4.5,7.3,5.4,11.1c0.1,0.4,0.2,0.8,0.2,1.1c0,0.9-0.3,1.8-0.7,2.9c-0.1,0.3-0.2,0.6-0.2,0.8
		c0,1.3,1.1,1.9,2.1,1.9h0c0.6,0,1.2-0.2,1.6-0.7c2.1-2.1,2.9-4,2.9-5.6C46.1,19,44.9,17.5,43.9,16"/>
	<path id="XMLID_49_" class="st1" d="M7.6,15.7c-0.4-0.7-0.5-1.6-0.5-2.5c0-1.2,0.2-2.6,0.2-3.9c0-0.7-0.1-1.4-0.3-2.1
		C6.9,6.7,6.3,6.5,5.9,6.5C4.7,6.6,3,7.4,2.6,9c-0.2,1.8-0.7,3.7-0.7,5.6c0,1.6,0.5,3.1,1.8,4.3c2,1.9,4.1,3.4,5.3,5.1
		c0.5,0.7,0.8,1.2,0.8,1.8c0,0.4-0.1,0.8-0.3,1.3c-0.3,0.5-1.2,1.8-1.3,2.7l0,0.1l0,0.1c0,0.4,0.4,0.8,0.8,0.8l0.1,0
		c0.5,0,0.8-0.2,1.2-0.2l0.1,0h0h0h0.2c2.3,0,3.8-1.8,4.2-3.5c0.1-0.4,0.1-0.8,0.1-1.1C14.6,21.2,9.3,19.1,7.6,15.7"/>
	<path id="XMLID_48_" class="st1" d="M21,14.8c-1.7-2.8-4-5.4-4.3-8.1l0.1-0.1c0.3-0.3,1.5-0.4,2.3-0.7c0.5-0.1,1.1-0.4,1.7-0.7
		c0.5-0.3,1.1-0.7,1.1-1.4c0-0.3-0.2-0.7-0.5-0.9c-0.9-0.5-1.9-0.8-2.9-0.8c-3,0-6.2,2-6.9,4.9c-0.1,0.5-0.2,0.9-0.2,1.3
		c0.1,4.3,4.9,7.3,6.1,11.1l0,0c0.2,0.5,0.2,0.9,0.2,1.4c0,0.8-0.2,1.7-0.5,2.7c-0.1,0.2-0.1,0.4-0.1,0.6c0,0.5,0.3,1,0.7,1.2
		c0.4,0.2,0.8,0.3,1.3,0.3c0.9,0,1.9-0.3,2.5-1c1-1.3,1.4-2.7,1.4-4C23,18.5,22.1,16.5,21,14.8"/>
	<line id="XMLID_47_" class="st2" x1="54.1" y1="89.4" x2="53.9" y2="89.4"/>
	<path id="XMLID_75_" class="st2" d="M11.6,63.7c0-1,0.4-2.2,0.9-2.9c0.4-0.5,0.9-1.1,1.6-1.7l0.6,2.5
		C13.4,62.2,12.4,62.9,11.6,63.7 M66.5,49.7c-2-1.1-4.7-1.7-7.6-1.7l-0.1,0c-2.7-6.8-6.1-11.8-10.2-15c-5.2-4-11.9-6.2-19.3-6.2
		c-3.7,0-7.5,0.6-11.3,1.6c-0.3-0.7-0.5-1.5-0.9-2.1c-0.2-0.3-0.7-0.5-1.1-0.2c-0.3,0.3-0.6,0.9-0.5,1.5c0.1,0.5,0.1,1,0.1,1.5
		c-2.1,0.7-4.2,1.4-6.3,2.3L8.3,32c-0.3,0.2-0.5,0.5-0.4,0.9l1.3,5.6C8.6,39,8,39.6,7.4,40c-0.6,0.4-0.6,1.6-0.2,1.7
		c1,0.2,1.9,0.3,2.8,0.4l1.4,5.8l-0.1,0.2c-0.2,0.4-0.4,0.8-0.5,1.1c-0.3,0.7,0.3,1.5,0.7,1.3c0.2-0.1,0.3-0.2,0.4-0.3l1.5,6.4
		c-1.3,0.9-2.2,1.9-2.9,2.7c-1,1.3-1.4,2.9-1.4,4.4c0,0.9,0.1,1.7,0.5,2.5l0.1,0.1c-0.4,1-0.5,2-0.5,3c0,0.4,0,0.8,0.1,1.2
		c0.2,2.3,1.6,4,3.4,5c1.6,0.9,3.6,1.3,5.6,1.4l6.2,26.1c0.1,0.2,0.2,0.4,0.5,0.5l0.3,0.1l0.4-0.1l1.6-0.9c1.5-0.8,4-2.3,7-4.4
		c1.1-0.8,2-1.1,3.4-1.1c1.1,0,2.3,0.3,3.7,0.7c1.8,0.5,3.9,1,6.3,1.1c1,0,2.1-0.1,3.1-0.3c2.6-0.6,4.8-2.1,5.9-4.3
		c0.7-1.4,1.1-3,1.1-4.8c0-0.5,0-0.9-0.1-1.1c-0.1-2.6-1.4-5.3-2.7-7.9l-0.4-0.8c-2.2-4.3-2.7-5.9-2.6-6.5l0-0.1
		c0.5-0.4,2.5-1.1,5.1-1.7c1.2-0.3,2.3-0.6,3.3-0.9c0.5-0.2,0.9-0.3,1.4-0.6c0.3-0.2,0.6-0.4,0.8-0.7c0.4-0.5,0.7-1.1,0.7-1.7
		c0-1.4-0.3-3.9-0.9-7c1.5-0.3,2.9-0.7,4.1-1.3c2-1,3.5-2.6,3.6-4.7C70,52.3,68.5,50.8,66.5,49.7"/>
	<path id="XMLID_44_" class="st0" d="M14.7,47.8c0.5-0.6,1-1.2,1.6-2l0.1-0.2c0.5-0.7,1.1-1.5,1.7-1.5l0.1,0c1.7,0.2,2.9,1,4.3,2
		c0.4,0.3,0.8,0.5,1.2,0.8c0.3,0.2,0.5,0.4,0.8,0.5c0.7,0.6,1.5,1.1,2.4,1.1l0.4,0h0c0.3,0,0.4-0.3,0.6-0.6c0.1-0.2,0.2-0.3,0.3-0.5
		l0,0l0,0c0.1-0.3-0.1-0.7-0.2-0.9l-0.1-0.1c-0.1-0.2-0.2-0.5-0.3-0.7c-0.4-0.8-0.7-1.4-1.3-2.2c-0.7-0.9-1.4-1.8-2-2.7
		c-0.4-0.5-0.7-1-1.1-1.5c0.9-0.7,1.8-1,2.7-1.3c0.5-0.2,0.9-0.3,1.4-0.5c0.4-0.1,0.6-0.8,0.5-1.4c-0.1-0.3-0.3-0.6-0.5-0.7l0,0l0,0
		c-1-0.1-2-0.3-3.1-0.8c-0.6-0.1-1.1-0.1-1.7-0.1c-0.8,0-1.5,0-2.2-0.3c-0.3-0.2-0.5-0.7-0.6-1.2l-0.1-0.4c-0.1-0.3-0.2-0.5-0.2-0.8
		l-0.1-0.3c3.6-0.9,7-1.3,10.2-1.3c6.7,0,12.7,1.9,17.3,5.5c3.4,2.6,6.3,6.9,8.7,12.6c-1.6,0.3-3,0.7-4.1,1.2
		c-1.4,0.7-2.5,1.7-3.1,2.8c-0.2,0-0.4,0-0.6,0c-0.6,0-1.2,0.1-1.6,0.2c-0.9-4-5.1-6.9-10.1-6.9c-5.2,0-9.6,3.3-10.2,7.7
		c-3.7,0.2-6.8,0.7-9.4,1.8L14.7,47.8z"/>
	<path id="XMLID_43_" class="st0" d="M11.4,34c1.1-0.5,2.2-0.9,3.2-1.2c-0.1,0.4-0.3,0.9-0.4,1.3c-0.1,0.2-0.3,0.3-0.5,0.5l-0.2,0.2
		v0.4c-0.5,0.4-1,0.7-1.6,1.2L11.4,34z"/>
	<path id="XMLID_42_" class="st0" d="M17,57.6c2.2-1,5.1-1.5,8.9-1.7c1,4,5.2,6.8,10,6.8c5.1,0,9.5-3.2,10.1-7.5h0
		c0.6-0.1,1.2-0.2,1.5-0.2l0.1,0c0.2,1.9,1.5,3.5,3.6,4.5c2,1,4.7,1.5,7.7,1.5l0.3,0l0.1,0c0.5,2.5,0.8,4.8,0.9,6.2
		c-0.6,0.3-2.1,0.7-3.3,1l-0.1,0c-2.6,0.7-5.5,1.4-6.9,2.6c-2.3,2-0.2,6,2,10.3c1,2,1.9,3.8,2.4,5.4c-4.8-0.7-7.9-1.9-10.6-4.1
		c-2.5-2.1-4.6-5.1-7.1-8.6c-0.3-0.4-0.8-0.7-1.3-0.7c-0.3,0-0.6,0.1-0.9,0.3c-0.3,0.2-0.6,0.6-0.7,1c-0.1,0.4,0,0.8,0.3,1.2
		l0.1,0.2c2.5,3.6,4.6,6.6,7.5,9c3.1,2.6,7,4.1,12.2,4.8c0.3,0,0.6,0.1,0.9,0.1c0,1.9-0.6,5-4.6,5.9c-0.7,0.2-1.5,0.2-2.3,0.2
		c-1.8,0-3.7-0.4-5.4-0.9c-1.7-0.4-3.3-0.9-4.9-0.9c-1.9,0-3.5,0.5-5.2,1.7c-0.9,0.6-3,2.1-5.5,3.5L17,57.6z"/>
	<path id="XMLID_41_" class="st0" d="M17.5,74.4c-1.4-0.2-2.6-0.5-3.5-1c-1.3-0.8-2-1.7-2.1-3c0-0.4,0-0.8,0-1
		c0-1.6,0.3-2.5,1.2-3.5c0.5-0.5,1.2-1.1,2.1-1.6L17.5,74.4z"/>
	<path id="XMLID_38_" class="st3" d="M58.9,58.3c-2.5,0-4.9-0.5-6.4-1.3c-1.4-0.7-2.2-1.6-2.2-2.6c0-1,0.7-1.8,2.2-2.6
		c1-0.5,2.4-0.9,4.1-1.1c0.9-0.1,1.6-0.2,2.4-0.2h0c0.2,0,0.3,0,0.5,0l0.3,0c2.2,0.1,4.2,0.6,5.6,1.3c1.6,0.9,2.2,1.8,2.2,2.5
		c0,0.6-0.5,1.6-2.2,2.5c-0.9,0.5-2.1,0.8-3.4,1.1C60.8,58.2,59.8,58.3,58.9,58.3L58.9,58.3z"/>
	<path id="XMLID_36_" class="st3" d="M35.9,60c-2,0-4-0.7-5.5-1.8c-1.4-1.1-2.1-2.6-2.1-4.1c0-1.5,0.7-3,2.1-4.1
		c1.4-1.1,3.4-1.8,5.5-1.8c2,0,4,0.7,5.5,1.8c1.4,1.1,2.1,2.6,2.1,4.1c0,1.5-0.7,3-2.1,4.1C39.9,59.3,37.9,60,35.9,60"/>
	<path id="XMLID_35_" class="st4" d="M13.3,46.6c0.2-0.8,0.4-1.6,0.5-2.3c0-0.3,0.1-0.6,0.1-0.9c0.1-0.4,0.1-0.8,0.2-1.1
		c0.1-0.3,0.2-0.5,0.3-0.8c0.1-0.2,0.2-0.4,0.3-0.6c0.2-0.5,0.2-1-0.1-1.3l0,0l0,0c-0.2-0.1-0.4-0.2-0.6-0.2c-0.4,0-0.8,0.2-1,0.3
		l-0.3,0.1l-0.2,0.1c-0.5,0.1-0.9,0.2-1.4,0.2c-0.4,0-0.7,0-1.1-0.1c0.2-0.3,0.5-0.5,0.8-0.6l0.4-0.2c0.3-0.2,0.7-0.3,1-0.5
		c0.2-0.1,0.6-0.4,0.9-0.6l0.3-0.1c0.2-0.1,0.3-0.1,0.4-0.3l0.3-0.3c0.3-0.3,0.6-0.6,0.8-1c0.7-1,0.9-2.3,1.2-3.4
		c0-0.2,0.1-0.4,0.1-0.6c0.1-0.4,0.2-0.9,0.4-1.4c0.1,0.3,0.3,0.7,0.4,1.1c0.3,0.7,0.5,1.4,0.7,2.2c0.3,0.9,0.5,1.8,0.9,2.7
		c0,0.1,0.1,0.2,0.3,0.2l0.1,0l0.1,0l0.1,0.1l0.1,0.2l0.2-0.1c0.4-0.4,0.9-0.4,1.4-0.4c0.2,0,0.3,0,0.5,0c0.2,0,0.3,0,0.5,0l0.3,0
		l0.3,0c0.2,0,0.4,0,0.6,0.2c-0.2,0.1-0.5,0.3-0.7,0.4c-0.7,0.4-1.3,0.7-2,0.9l0,0l0,0c-0.2,0.2-0.5,0.6-0.6,1c0,0.3,0,0.6,0.2,0.8
		c0.1,0.3,0.3,0.4,0.5,0.5l0.3,0.3c1.3,1.3,2.5,2.7,3.6,4.5l0,0c-0.1,0-0.3-0.2-0.5-0.3l-0.1-0.1c-0.8-0.6-1.6-1.1-2.3-1.5
		c-0.9-0.5-1.8-1-2.6-1.8c-0.2-0.2-0.5-0.3-0.7-0.3c-0.6,0-1.1,0.6-1.7,1.3c-0.3,0.3-0.6,0.7-0.8,0.9c-0.6,0.6-1.2,1.2-1.7,1.9
		c-0.1,0.2-0.3,0.3-0.4,0.5l-0.2,0.2C13.6,46.3,13.5,46.4,13.3,46.6L13.3,46.6z"/>
</g>
</svg>
