<?xml version="1.0" encoding="UTF-8" standalone="no"?>
<svg width="139px" height="37px" viewBox="0 0 139 37" version="1.1" xmlns="http://www.w3.org/2000/svg" xmlns:xlink="http://www.w3.org/1999/xlink" xmlns:sketch="http://www.bohemiancoding.com/sketch/ns">
    <!-- Generator: Sketch 3.4.2 (15857) - http://www.bohemiancoding.com/sketch -->
    <title>logo</title>
    <desc>Created with Sketch.</desc>
    <defs></defs>
    <g id="Page-1" stroke="none" stroke-width="1" fill="none" fill-rule="evenodd" sketch:type="MSPage">
        <g id="logo" sketch:type="MSLayerGroup">
            <path d="M138.5706,15.8390003 L135.1726,27.0130003 L131.1086,27.0130003 L129.2586,20.6530003 L127.4086,27.0130003 L123.3446,27.0130003 L119.9466,15.8390003 L123.5166,15.8390003 L125.5166,22.9090003 L125.6026,22.9090003 L127.6886,15.8390003 L130.8286,15.8390003 L132.9146,22.9090003 L133.0006,22.9090003 L135.0006,15.8390003 L138.5706,15.8390003 L138.5706,15.8390003 Z" id="Fill-13" fill="#FFFFFF" sketch:type="MSShapeGroup"></path>
            <path d="M114.438,24.4349003 C115.836,24.4349003 116.804,23.2959003 116.804,21.4479003 C116.804,19.5349003 115.836,18.4179003 114.438,18.4179003 C112.976,18.4179003 112.008,19.5349003 112.008,21.4479003 C112.008,23.2959003 112.976,24.4349003 114.438,24.4349003 M114.438,15.6239003 C117.922,15.6239003 120.632,17.7729003 120.632,21.4039003 C120.632,25.0149003 117.901,27.2289003 114.438,27.2289003 C110.868,27.2289003 108.18,25.0149003 108.18,21.4039003 C108.18,17.7949003 110.847,15.6239003 114.438,15.6239003" id="Fill-11" fill="#FFFFFF" sketch:type="MSShapeGroup"></path>
            <path d="M98.3893,11.9710003 L103.6373,20.9530003 L103.6803,20.9530003 L103.5083,16.6550003 L103.5083,11.9710003 L107.3363,11.9710003 L107.3363,27.0130003 L103.3783,27.0130003 L99.2713,19.9650003 L98.1093,17.7520003 L98.0663,17.7520003 L98.2383,22.1140003 L98.2383,27.0130003 L94.4103,27.0130003 L94.4103,11.9710003 L98.3893,11.9710003 L98.3893,11.9710003 Z" id="Fill-9" fill="#FFFFFF" sketch:type="MSShapeGroup"></path>
            <path d="M93.8744,15.8390003 L90.4764,27.0130003 L86.4114,27.0130003 L84.5624,20.6530003 L82.7124,27.0130003 L78.6474,27.0130003 L75.2504,15.8390003 L78.8204,15.8390003 L80.8194,22.9090003 L80.9064,22.9090003 L82.9924,15.8390003 L86.1324,15.8390003 L88.2184,22.9090003 L88.3044,22.9090003 L90.3044,15.8390003 L93.8744,15.8390003 L93.8744,15.8390003 Z" id="Fill-7" fill="#FFFFFF" sketch:type="MSShapeGroup"></path>
            <path d="M69.7416,24.4349003 C71.1396,24.4349003 72.1066,23.2959003 72.1066,21.4479003 C72.1066,19.5349003 71.1396,18.4179003 69.7416,18.4179003 C68.2786,18.4179003 67.3116,19.5349003 67.3116,21.4479003 C67.3116,23.2959003 68.2786,24.4349003 69.7416,24.4349003 M69.7416,15.6239003 C73.2256,15.6239003 75.9356,17.7729003 75.9356,21.4039003 C75.9356,25.0149003 73.2036,27.2289003 69.7416,27.2289003 C66.1716,27.2289003 63.4826,25.0149003 63.4826,21.4039003 C63.4826,17.7949003 66.1496,15.6239003 69.7416,15.6239003" id="Fill-5" fill="#FFFFFF" sketch:type="MSShapeGroup"></path>
            <path d="M56.2093,11.2832003 L56.2093,16.9562003 C56.6393,16.2902003 57.4993,15.6242003 58.8333,15.6242003 C60.5323,15.6242003 62.8553,16.4192003 62.8553,20.1802003 L62.8553,27.0132003 L59.1993,27.0132003 L59.1993,19.8142003 C59.1993,18.7822003 58.5103,18.4172003 57.7583,18.4172003 C56.8973,18.4172003 56.2093,19.0402003 56.2093,20.1582003 L56.2093,27.0132003 L52.5533,27.0132003 L52.5533,11.2832003 L56.2093,11.2832003 L56.2093,11.2832003 Z" id="Fill-3" fill="#FFFFFF" sketch:type="MSShapeGroup"></path>
            <path d="M38.9803,19.4922003 C38.9803,14.3132003 42.6793,11.6702003 47.5393,11.6702003 C49.5183,11.7562003 51.3033,12.4002003 52.1413,13.0022003 L50.8943,15.6672003 C50.8943,15.6672003 49.3893,14.7852003 47.3673,14.7852003 C44.7653,14.7852003 43.1313,16.8062003 43.1313,19.4922003 C43.1313,22.2002003 44.7433,24.1982003 47.3673,24.1982003 C49.3033,24.1982003 50.8943,23.3602003 50.8943,23.3602003 L52.1413,26.0032003 C51.3033,26.6052003 49.5183,27.2072003 47.5393,27.3142003 C42.6573,27.3142003 38.9803,24.6492003 38.9803,19.4922003" id="Fill-1" fill="#FFFFFF" sketch:type="MSShapeGroup"></path>
            <path d="M16.045,0.0487 C7.198,0.0487 0,7.2417 0,16.0817 C0,27.7437 13.242,35.4307 13.82,36.0087 C13.82,36.0087 15.168,36.9997 15.976,36.9997 C16.505,36.9997 17.936,36.0087 17.936,36.0087 C18.514,35.4307 32.09,27.7437 32.09,16.0817 C32.09,7.2417 24.892,0.0487 16.045,0.0487 L16.045,0.0487 Z M16.141,27.1097 C9.954,27.1097 4.939,22.0977 4.939,15.9157 C4.939,9.7337 9.954,4.7227 16.141,4.7227 C22.328,4.7227 27.343,9.7337 27.343,15.9157 C27.343,22.0977 22.328,27.1097 16.141,27.1097 L16.141,27.1097 Z" id="Path" fill="#DC5D54" sketch:type="MSShapeGroup"></path>
            <path d="M10.93,10.7467 C10.938,10.7547 10.945,10.7647 10.953,10.7727 L13.943,13.4837 L15.143,12.2407 L12.452,9.2757 C12.444,9.2677 12.435,9.2607 12.426,9.2537 C12.42,9.2477 12.417,9.2407 12.411,9.2347 C11.997,8.8207 11.326,8.8207 10.912,9.2347 C10.498,9.6487 10.498,10.3187 10.912,10.7327 C10.917,10.7377 10.925,10.7417 10.93,10.7467" id="Path" fill="#DC5D54" sketch:type="MSShapeGroup"></path>
            <path d="M23.796,19.3457 L23.808,19.3577 C23.808,19.3577 22.959,16.9107 20.777,15.8817 C20.525,15.7507 20.273,15.6587 20.025,15.6037 C19.985,15.5917 19.914,15.5797 19.914,15.5797 C19.654,15.5317 19.156,15.5567 19.156,15.5567 C19.156,15.5567 18.396,15.6927 17.957,15.2567 L17.163,14.3947 L21.053,10.8057 C21.061,10.7977 21.068,10.7887 21.076,10.7807 C21.081,10.7747 21.088,10.7707 21.095,10.7647 C21.509,10.3507 21.508,9.6807 21.094,9.2667 C20.68,8.8537 20.009,8.8537 19.596,9.2677 C19.59,9.2727 19.586,9.2807 19.58,9.2857 C19.572,9.2937 19.563,9.2997 19.554,9.3087 L13.776,15.5627 C13.339,16.0077 12.614,15.8327 12.614,15.8327 C11.732,15.6497 10.714,15.9517 9.819,16.8477 C8.455,18.2097 7.753,20.5627 8.772,21.5807 C9.791,22.5977 12.145,21.8967 13.508,20.5347 C14.404,19.6397 14.707,18.6227 14.523,17.7407 C14.523,17.7407 14.35,17.0267 14.786,16.5877 L16.031,15.4397 L16.93,16.2657 C17.377,16.7037 17.24,17.4717 17.24,17.4717 C17.208,17.7107 17.257,18.2167 17.257,18.2167 C17.258,18.2197 17.26,18.2227 17.261,18.2267 C17.318,18.5407 17.435,18.8617 17.614,19.1807 C18.668,21.2927 21.048,22.1157 21.048,22.1157 C21.254,22.1937 21.46,22.2567 21.662,22.3037 C21.673,22.3067 21.77,22.3197 21.84,22.2497 C21.901,22.1887 21.908,22.0987 21.869,22.0267 L18.97,18.8467 L18.971,18.8467 C18.879,18.7347 18.885,18.5697 18.989,18.4647 C19.094,18.3607 19.258,18.3557 19.37,18.4467 L19.371,18.4457 C19.496,18.5487 21.591,20.4597 22.619,21.2997 C22.625,21.3017 22.634,21.3017 22.641,21.3027 C22.737,21.3427 22.854,21.3257 22.934,21.2467 C23.015,21.1657 23.03,21.0467 22.987,20.9487 C22.983,20.9367 22.98,20.9237 22.972,20.9117 C22.133,19.8857 20.229,17.8157 20.127,17.6917 L20.128,17.6907 C20.035,17.5787 20.041,17.4137 20.145,17.3097 C20.25,17.2057 20.415,17.2007 20.527,17.2917 L20.527,17.2907 L23.675,20.1567 C23.75,20.2237 23.865,20.2277 23.938,20.1547 C23.993,20.0987 23.996,20.0257 23.994,19.9917 C23.989,19.9667 23.983,19.9407 23.976,19.9127 C23.93,19.7267 23.869,19.5367 23.796,19.3457" id="Path" fill="#DC5D54" sketch:type="MSShapeGroup"></path>
        </g>
    </g>
</svg>