<?xml version="1.0" encoding="utf-8"?>
<!-- Generator: Adobe Illustrator 19.1.0, SVG Export Plug-In . SVG Version: 6.00 Build 0)  -->
<svg version="1.1" id="Layer_1" xmlns="http://www.w3.org/2000/svg" xmlns:xlink="http://www.w3.org/1999/xlink" x="0px" y="0px"
	 viewBox="0 0 880 411.9" style="enable-background:new 0 0 880 411.9;" xml:space="preserve">
<style type="text/css">
	.st0{fill:#BDC4CB;stroke:#36363D;stroke-width:2;stroke-linecap:round;stroke-linejoin:round;stroke-miterlimit:10;}
	.st1{fill:#FFFFFF;}
	.st2{fill:#D8D8D8;}
	.st3{fill:#C9CFD3;stroke:#36363D;stroke-width:2;stroke-linecap:round;stroke-linejoin:round;stroke-miterlimit:10;}
	.st4{clip-path:url(#XMLID_27_);}
	.st5{fill:#DC5D54;}
	.st6{clip-path:url(#XMLID_27_);fill:#FFFFFF;}
	.st7{fill:none;stroke:#9A423C;stroke-width:2;stroke-linecap:round;stroke-linejoin:round;stroke-miterlimit:10;}
	.st8{fill:#36363D;}
	.st9{fill:#8793A2;}
	.st10{opacity:0.3;fill:none;stroke:#36363D;stroke-width:3;stroke-miterlimit:10;}
	.st11{fill:none;stroke:#36363D;stroke-width:3;stroke-linecap:round;stroke-miterlimit:10;}
	.st12{fill:none;stroke:#8793A2;stroke-width:2;stroke-linecap:round;stroke-miterlimit:10;}
	.st13{opacity:0.2;fill:none;stroke:#8793A2;stroke-width:2;stroke-linecap:round;stroke-miterlimit:10;}
	.st14{fill:none;stroke:#36363D;stroke-width:2;stroke-linecap:round;stroke-linejoin:round;stroke-miterlimit:10;}
	.st15{opacity:0.55;fill:#8793A2;}
	.st16{fill:none;stroke:#36363D;stroke-width:2;stroke-linecap:round;stroke-miterlimit:10;}
	.st17{fill:none;stroke:#36363D;stroke-width:2;stroke-miterlimit:10;}
	.st18{fill:#DC5D54;stroke:#36363D;stroke-width:2;stroke-miterlimit:10;}
	.st19{clip-path:url(#SVGID_2_);fill:#DC5D54;stroke:#36363D;stroke-width:2;stroke-miterlimit:10;}
	.st20{opacity:0.3;clip-path:url(#SVGID_2_);fill:#36363D;}
	.st21{fill:#38383F;stroke:#36363D;stroke-width:2;stroke-miterlimit:10;}
	.st22{fill:#FFFFFF;stroke:#36363D;stroke-width:2;stroke-miterlimit:10;}
	.st23{opacity:0.3;fill:#36363D;}
	.st24{fill:none;stroke:#8894A3;stroke-width:2;stroke-linecap:round;stroke-miterlimit:10;}
	.st25{fill:none;stroke:#DC5D54;stroke-width:2;stroke-miterlimit:10;}
</style>
<g>
	<g>
		<path id="XMLID_25_" class="st0" d="M153,388.4v-324c0-8,6.5-14.6,14.6-14.6h526.8c8,0,14.6,6.5,14.6,14.6v324"/>
		<rect x="171.3" y="71.3" class="st1" width="519.2" height="295.7"/>
	</g>
	<rect x="172.2" y="72.5" class="st2" width="517.3" height="150.9"/>
	<path id="XMLID_24_" class="st3" d="M761.6,388.4H99.3c-0.7,0-1.2,0.6-1.2,1.2v11.8c0,5.4,4.4,9.7,9.7,9.7h645.4
		c5.4,0,9.7-4.4,9.7-9.7v-11.8C762.8,389,762.3,388.4,761.6,388.4z"/>
	<g id="XMLID_1_">
		<g id="XMLID_15_">
			<defs>
				<rect id="XMLID_16_" x="321.2" y="72.3" width="126.2" height="150.5"/>
			</defs>
			<clipPath id="XMLID_27_">
				<use xlink:href="#XMLID_16_"  style="overflow:visible;"/>
			</clipPath>
			<g id="XMLID_18_" class="st4">
				<path id="XMLID_23_" class="st1" d="M337.6,311.9c-7.9,0-14.3-6.4-14.3-14.3V108.5c0-7.9,6.4-14.3,14.3-14.3h84.1
					c7.9,0,14.3,6.4,14.3,14.3v189.1c0,7.9-6.4,14.3-14.3,14.3H337.6z"/>
				<path id="XMLID_22_" class="st1" d="M323.2,151.6h-0.4c-0.6,0-1.2,0.5-1.2,1.2v27.9c0,0.6,0.5,1.2,1.2,1.2h0.4"/>
				<circle id="XMLID_21_" class="st1" cx="379.6" cy="103.4" r="1.2"/>
				<path id="XMLID_20_" class="st1" d="M386.8,111.4h-14.3c-0.2,0-0.4-0.2-0.4-0.4v-1.5c0-0.2,0.2-0.4,0.4-0.4h14.3
					c0.2,0,0.4,0.2,0.4,0.4v1.5C387.2,111.2,387,111.4,386.8,111.4z"/>
				<polygon id="XMLID_19_" class="st5" points="430.9,278.9 328.1,278.9 328.1,122.9 430.2,122.9 				"/>
			</g>
			<path id="XMLID_17_" class="st6" d="M436.1,162.8h0.4c0.6,0,1.2-0.5,1.2-1.2v-12.9c0-0.6-0.5-1.2-1.2-1.2h-0.4"/>
		</g>
		<g id="XMLID_10_">
			<line id="XMLID_14_" class="st7" x1="367.7" y1="149.8" x2="367.7" y2="195.1"/>
			<line id="XMLID_13_" class="st7" x1="391.6" y1="171.8" x2="391.6" y2="195.1"/>
			<path id="XMLID_12_" class="st7" d="M375.6,149.8v14c0,4.4-3.6,8-8,8s-8-3.6-8-8v-14"/>
			<path id="XMLID_11_" class="st7" d="M399.6,157.8c0-4.4-3.6-8-8-8s-8,3.6-8,8v6c0,4.4,3.6,8,8,8s8-3.6,8-8V157.8z"/>
		</g>
		<g id="XMLID_2_">
			<path id="XMLID_9_" class="st8" d="M518.2,130.7h-63.9c-0.8,0-1.5-0.7-1.5-1.5v-22.6c0-0.8,0.7-1.5,1.5-1.5h63.9
				c0.8,0,1.5,0.7,1.5,1.5v22.6C519.7,130,519,130.7,518.2,130.7z"/>
			<path id="XMLID_8_" class="st9" d="M517.3,187.5h-62c-1.3,0-2.4-1.1-2.4-2.4v-9c0-1.3,1.1-2.4,2.4-2.4h62c1.3,0,2.4,1.1,2.4,2.4
				v9C519.7,186.4,518.6,187.5,517.3,187.5z"/>
			<g id="XMLID_3_">
				<line id="XMLID_7_" class="st10" x1="452.9" y1="142.6" x2="493.7" y2="142.6"/>
				<line id="XMLID_6_" class="st10" x1="500.7" y1="142.6" x2="521.2" y2="142.6"/>
				<line id="XMLID_5_" class="st10" x1="452.9" y1="150.9" x2="499.9" y2="150.9"/>
				<path id="XMLID_4_" class="st10" d="M508,150.9"/>
			</g>
		</g>
	</g>
	<line class="st11" x1="321.1" y1="258" x2="376.4" y2="258"/>
	<line class="st12" x1="321.1" y1="270.1" x2="445.8" y2="270.1"/>
	<line class="st13" x1="321.1" y1="293" x2="520.6" y2="293"/>
	<line class="st11" x1="321.1" y1="314.9" x2="376.4" y2="314.9"/>
	<line class="st12" x1="321.1" y1="326.9" x2="445.8" y2="326.9"/>
	<rect x="171.3" y="71.3" class="st14" width="519.2" height="295.7"/>
	<g>
		<path class="st1" d="M179.6,411.2H86.5c-5.9,0-10.7-4.8-10.7-10.7V182.2c0-5.9,4.8-10.7,10.7-10.7h93.1c5.9,0,10.7,4.8,10.7,10.7
			v218.2C190.3,406.4,185.5,411.2,179.6,411.2z"/>
		<path class="st15" d="M179.6,411.2H86.5c-5.9,0-10.7-4.8-10.7-10.7V182.2c0-5.9,4.8-10.7,10.7-10.7h93.1c5.9,0,10.7,4.8,10.7,10.7
			v218.2C190.3,406.4,185.5,411.2,179.6,411.2z"/>
		<line class="st16" x1="123.7" y1="189.3" x2="142.4" y2="189.3"/>
		<circle class="st8" cx="133.1" cy="394.8" r="4.7"/>
		<path class="st14" d="M75.8,194.5v-12.3c0-5.9,4.8-10.7,10.7-10.7h93.1c5.9,0,10.7,4.8,10.7,10.7v218.2c0,5.9-4.8,10.7-10.7,10.7
			H86.5c-5.9,0-10.7-4.8-10.7-10.7V206.6"/>
		<g>
			<rect x="85.9" y="208" class="st5" width="94.3" height="24.6"/>
			<rect x="85.9" y="232.7" class="st1" width="94.3" height="144.8"/>
			<line class="st11" x1="101.1" y1="252.3" x2="119.9" y2="252.3"/>
			<line class="st12" x1="101.1" y1="263.1" x2="143.5" y2="263.1"/>
			<line class="st11" x1="101.1" y1="347.3" x2="119.9" y2="347.3"/>
			<line class="st12" x1="101.1" y1="358.1" x2="143.5" y2="358.1"/>
			<line class="st13" x1="98.1" y1="281.7" x2="165.9" y2="281.7"/>
			<line class="st13" x1="98.1" y1="328.7" x2="165.9" y2="328.7"/>
			<line class="st11" x1="101.1" y1="300.3" x2="119.9" y2="300.3"/>
			<line class="st12" x1="101.1" y1="311.1" x2="143.5" y2="311.1"/>
			<rect x="84.9" y="207.3" class="st14" width="96.3" height="170.2"/>
		</g>
	</g>
	<g>
		<g>
			<path class="st1" d="M818.5,331.1H657.5c-5.1,0-9.3-4.2-9.3-9.3V95.2c0-5.1,4.2-9.3,9.3-9.3h160.9c5.1,0,9.3,4.2,9.3,9.3v226.6
				C827.8,326.9,823.6,331.1,818.5,331.1z"/>
			<path class="st15" d="M818.5,331.1H657.5c-5.1,0-9.3-4.2-9.3-9.3V95.2c0-5.1,4.2-9.3,9.3-9.3h160.9c5.1,0,9.3,4.2,9.3,9.3v226.6
				C827.8,326.9,823.6,331.1,818.5,331.1z"/>
			<path class="st14" d="M648.2,109.7V94.1c0-4.5,3.7-8.2,8.2-8.2h163.2c4.5,0,8.2,3.7,8.2,8.2v228.9c0,4.5-3.7,8.2-8.2,8.2H656.4
				c-4.5,0-8.2-3.7-8.2-8.2V121.6"/>
			<g>
				<rect x="659.7" y="116.8" class="st5" width="156.5" height="18.3"/>
				<rect x="659.7" y="135.2" class="st1" width="156.5" height="165.7"/>
				<line class="st11" x1="672.7" y1="155.6" x2="688.6" y2="155.6"/>
				<line class="st12" x1="672.7" y1="165.1" x2="708.6" y2="165.1"/>
				<line class="st13" x1="670.1" y1="183.2" x2="800.8" y2="183.2"/>
				<line class="st11" x1="672.7" y1="200.4" x2="688.6" y2="200.4"/>
				<line class="st12" x1="672.7" y1="209.9" x2="708.6" y2="209.9"/>
				<line class="st13" x1="670.1" y1="229.2" x2="800.8" y2="229.2"/>
				<line class="st13" x1="670.1" y1="272.2" x2="800.8" y2="272.2"/>
				<line class="st11" x1="672.7" y1="246.4" x2="688.6" y2="246.4"/>
				<line class="st12" x1="672.7" y1="255.9" x2="708.6" y2="255.9"/>
				<rect x="658.9" y="116.2" class="st14" width="158.2" height="184.7"/>
			</g>
			<circle class="st17" cx="738" cy="314.1" r="3.7"/>
		</g>
		<path class="st5" d="M802.9,102.2H673.1c-2,0-3.7-1.6-3.7-3.7V82.4c0-0.7,0.5-1.2,1.2-1.2h134.7c0.7,0,1.2,0.5,1.2,1.2v16.1
			C806.6,100.5,804.9,102.2,802.9,102.2z"/>
		<path class="st18" d="M802.9,102.2H673.1c-2,0-3.7-1.6-3.7-3.7V82.4c0-0.7,0.5-1.2,1.2-1.2h134.7c0.7,0,1.2,0.5,1.2,1.2v16.1
			C806.6,100.5,804.9,102.2,802.9,102.2z"/>
		<g>
			<g>
				<defs>
					<polygon id="SVGID_1_" points="806.5,319 806.5,327.2 748.6,327.2 748.6,319 727.3,319 727.3,327.2 669.4,327.2 669.4,319 
						660.2,319 660.2,424.8 815.9,424.8 815.9,319 					"/>
				</defs>
				<clipPath id="SVGID_2_">
					<use xlink:href="#SVGID_1_"  style="overflow:visible;"/>
				</clipPath>
				<path class="st19" d="M810.3,411.1H665.6v-6.6c0-2.3,1-4.5,2.6-6.1l1.2-1.1c8.9-8.4,14.5-25.8,15.8-38c2-17.7,4.3-28.5,4.3-28.5
					h96.8c0,0,1.6,8.9,3,26.2c1.1,13.5,7.5,32.2,17.7,41.1l0.3,0.3c1.9,1.6,2.9,3.9,2.9,6.4V411.1z"/>
				<rect x="689.1" y="327.2" class="st20" width="98.7" height="25.5"/>
			</g>
			<path class="st21" d="M742.1,366.6c2,1.3,3.2,3.6,3.2,6.1c0,4.1-3.3,7.3-7.3,7.3c-4.1,0-7.3-3.3-7.3-7.3c0-2.3,1.1-4.4,2.7-5.7"
				/>
			<path class="st22" d="M734,349.6h8.1V369c0,1.7-1.4,3-3,3h-2c-1.7,0-3-1.4-3-3V349.6z"/>
			<path class="st18" d="M672.9,320.2h50.9c1.9,0,3.5,1.6,3.5,3.5v14.6h-57.9v-14.6C669.4,321.8,671,320.2,672.9,320.2z"/>
			<path class="st18" d="M752.2,320.2h50.9c1.9,0,3.5,1.6,3.5,3.5v14.6h-57.9v-14.6C748.7,321.8,750.2,320.2,752.2,320.2z"/>
			<rect x="728.3" y="331.1" class="st22" width="19.3" height="17.9"/>
			<rect x="734" y="349.6" class="st23" width="8.1" height="9.1"/>
		</g>
	</g>
	<g>
		<g>
			<line class="st24" x1="112.1" y1="139.5" x2="112.1" y2="121.5"/>
		</g>
		<g>
			<line class="st24" x1="103" y1="130.5" x2="121.1" y2="130.5"/>
		</g>
		<circle class="st25" cx="84.7" cy="108.7" r="7.3"/>
	</g>
	<g>
		<g>
			<line class="st24" x1="748" y1="39.2" x2="748" y2="21.1"/>
		</g>
		<g>
			<line class="st24" x1="739" y1="30.2" x2="757" y2="30.2"/>
		</g>
		<circle class="st25" cx="720.6" cy="8.4" r="7.3"/>
	</g>
	<g>
		<g>
			<line class="st24" x1="878.6" y1="344.2" x2="860.6" y2="344.2"/>
		</g>
		<g>
			<line class="st24" x1="869.6" y1="353.2" x2="869.6" y2="335.1"/>
		</g>
		<circle class="st25" cx="847.8" cy="371.5" r="7.3"/>
	</g>
	<g>
		<g>
			<line class="st24" x1="36.1" y1="366" x2="36.1" y2="347.9"/>
		</g>
		<g>
			<line class="st24" x1="27.1" y1="356.9" x2="45.2" y2="356.9"/>
		</g>
		<circle class="st25" cx="8.8" cy="335.2" r="7.3"/>
	</g>
</g>
</svg>
